<svg width="143" height="332" viewBox="0 0 143 332" fill="none" xmlns="http://www.w3.org/2000/svg">
<mask id="mask0_219_23" style="mask-type:alpha" maskUnits="userSpaceOnUse" x="0" y="0" width="143" height="332">
<rect width="143" height="332" fill="#D9D9D9"/>
</mask>
<g mask="url(#mask0_219_23)">
<path opacity="0.6" fill-rule="evenodd" clip-rule="evenodd" d="M23.2264 -2.64179C34.2163 -1.57909 42.2651 8.18786 41.2099 19.1767C41.2095 19.1813 41.2091 19.1858 41.2086 19.1903L41.2058 19.2223C41.2004 19.2807 41.191 19.3862 41.1781 19.5377C41.1524 19.8408 41.1128 20.3276 41.0647 20.9884C40.9685 22.3105 40.8385 24.3269 40.7171 26.96C40.474 32.2294 40.2661 39.9485 40.4299 49.4974C40.7581 68.6441 42.5765 94.8881 48.4824 123.365C60.3903 180.782 88.1501 244.034 150.182 279.43C211.781 314.578 279.478 306.455 334.136 287.768C361.254 278.496 384.402 266.86 400.782 257.52C408.95 252.861 415.379 248.806 419.715 245.953C421.881 244.527 423.521 243.404 424.589 242.659C425.123 242.287 425.514 242.009 425.757 241.836C425.878 241.749 425.962 241.688 426.008 241.655L426.031 241.638C426.034 241.636 426.038 241.633 426.041 241.631C426.041 241.631 426.041 241.631 426.041 241.631C426.042 241.63 426.044 241.628 426.046 241.627C434.952 235.108 447.458 237.035 453.987 245.937C460.52 254.844 458.595 267.36 449.688 273.893L438.652 258.846C449.688 273.893 449.682 273.897 449.675 273.902L449.613 273.948L449.479 274.045C449.414 274.092 449.335 274.149 449.242 274.216C449.18 274.261 449.111 274.31 449.036 274.364C448.663 274.63 448.138 275.003 447.466 275.472C446.121 276.409 444.186 277.733 441.705 279.366C436.746 282.63 429.59 287.138 420.597 292.267C402.654 302.499 377.175 315.326 347.076 325.617C287.3 346.054 206.203 357.448 130.358 314.172C54.0258 270.616 22.3011 194.1 9.3158 131.488C2.77505 99.9496 0.794599 71.1131 0.435734 50.1831C0.255883 39.6936 0.482374 31.1252 0.759539 25.1168C0.898189 22.111 1.04975 19.7409 1.17014 18.0861C1.23034 17.2586 1.28278 16.6095 1.32197 16.1486C1.34156 15.9182 1.35784 15.7349 1.37013 15.5997L1.38548 15.4334L1.39275 15.3567C1.39355 15.3483 1.3943 15.3406 20.3146 17.1699L1.39433 15.3404C2.45746 4.34597 12.232 -3.70492 23.2264 -2.64179Z" fill="url(#paint0_linear_219_23)"/>
<path opacity="0.6" fill-rule="evenodd" clip-rule="evenodd" d="M145.797 -16.4549C145.796 -16.4511 145.794 -16.4473 145.793 -16.4435L145.792 -16.4412C145.778 -16.4052 145.752 -16.3341 145.713 -16.2288C145.636 -16.0183 145.509 -15.671 145.34 -15.1935C145.001 -14.238 144.492 -12.7628 143.861 -10.8183C142.598 -6.92614 140.852 -1.1729 139.011 6.03892C135.317 20.51 131.303 40.6029 129.943 63.1642C127.194 108.766 135.4 161.104 174.65 199.401C213.621 237.426 266.103 244.929 311.636 241.806C334.175 240.26 354.203 236.144 368.614 232.395C375.795 230.527 381.519 228.766 385.388 227.495C387.321 226.86 388.786 226.349 389.733 226.01C390.207 225.84 390.551 225.714 390.759 225.637C390.863 225.598 390.933 225.572 390.968 225.558L390.979 225.554C390.979 225.554 390.98 225.554 390.98 225.554C390.984 225.552 390.988 225.551 390.991 225.549C401.349 221.577 413.016 226.623 417.061 236.828C421.109 247.042 415.989 258.555 405.626 262.545L398.297 244.052C405.626 262.545 405.619 262.548 405.611 262.551L405.546 262.576L405.411 262.627C405.303 262.668 405.159 262.722 404.98 262.789C404.622 262.922 404.123 263.105 403.49 263.331C402.224 263.784 400.42 264.412 398.128 265.165C393.548 266.67 387.001 268.679 378.897 270.788C362.737 274.992 340.134 279.655 314.433 281.418C263.489 284.912 197.06 277.143 146.303 227.618C95.2226 177.778 86.6592 111.645 89.7234 60.8094C91.2699 35.1521 95.8073 12.5352 99.9387 -3.64903C102.01 -11.7648 103.996 -18.3256 105.486 -22.9156C106.231 -25.2121 106.854 -27.0199 107.303 -28.2872C107.528 -28.9211 107.709 -29.4202 107.841 -29.7781C107.907 -29.9571 107.961 -30.1008 108.001 -30.2085L108.051 -30.3428L108.069 -30.3896L108.076 -30.4078C108.079 -30.4155 108.082 -30.4226 126.937 -23.433L108.082 -30.4226C111.999 -40.6856 123.616 -45.876 134.029 -42.0158C144.435 -38.1586 149.701 -26.7245 145.802 -16.4677C145.801 -16.4663 145.801 -16.4648 145.8 -16.4634C145.8 -16.4632 145.8 -16.4636 145.8 -16.4634L145.797 -16.4549Z" fill="url(#paint1_linear_219_23)"/>
</g>
<defs>
<linearGradient id="paint0_linear_219_23" x1="-201.758" y1="-73.3851" x2="-6.30367" y2="558.492" gradientUnits="userSpaceOnUse">
<stop stop-color="white" stop-opacity="0"/>
<stop offset="1" stop-color="#717CFF"/>
</linearGradient>
<linearGradient id="paint1_linear_219_23" x1="101.176" y1="10.8472" x2="9.04488" y2="472.617" gradientUnits="userSpaceOnUse">
<stop stop-color="#D5D8F5" stop-opacity="0"/>
<stop offset="0.811728" stop-color="#6B77FF"/>
</linearGradient>
</defs>
</svg>
