<svg width="24" height="25" viewBox="0 0 24 25" fill="none" xmlns="http://www.w3.org/2000/svg">
<g clip-path="url(#clip0_16_292)">
<path d="M24 12.5002C24 5.87283 18.6274 0.500244 12 0.500244C5.37258 0.500244 0 5.87283 0 12.5002C0 19.1277 5.37258 24.5002 12 24.5002C18.6274 24.5002 24 19.1277 24 12.5002Z" fill="white"/>
<path fill-rule="evenodd" clip-rule="evenodd" d="M17.8723 12.6367C17.8723 12.2112 17.8341 11.8022 17.7632 11.4094H12.1123V13.7303H15.3414C15.2023 14.4803 14.7796 15.1158 14.1441 15.5413V17.0467H16.0832C17.2178 16.0022 17.8723 14.464 17.8723 12.6367Z" fill="#4285F4"/>
<path fill-rule="evenodd" clip-rule="evenodd" d="M12.1123 18.5001C13.7323 18.5001 15.0905 17.9629 16.0832 17.0465L14.1441 15.541C13.6069 15.9011 12.9196 16.1138 12.1123 16.1138C10.5496 16.1138 9.22686 15.0583 8.75504 13.6401H6.75049V15.1947C7.73776 17.1556 9.76686 18.5001 12.1123 18.5001Z" fill="#34A853"/>
<path fill-rule="evenodd" clip-rule="evenodd" d="M8.75504 13.6402C8.63504 13.2802 8.56686 12.8957 8.56686 12.5002C8.56686 12.1048 8.63504 11.7202 8.75504 11.3602V9.80566H6.75049C6.34412 10.6157 6.1123 11.532 6.1123 12.5002C6.1123 13.4684 6.34412 14.3848 6.75049 15.1948L8.75504 13.6402Z" fill="#FBBC05"/>
<path fill-rule="evenodd" clip-rule="evenodd" d="M12.1123 8.88661C12.9932 8.88661 13.7841 9.18934 14.406 9.78389L16.1269 8.06297C15.0878 7.09479 13.7296 6.50024 12.1123 6.50024C9.76686 6.50024 7.73776 7.84479 6.75049 9.80571L8.75504 11.3603C9.22686 9.94207 10.5496 8.88661 12.1123 8.88661Z" fill="#EA4335"/>
</g>
<rect x="0.5" y="1.00024" width="23" height="23" rx="11.5" stroke="#E8E8EC"/>
<defs>
<clipPath id="clip0_16_292">
<rect y="0.500244" width="24" height="24" rx="12" fill="white"/>
</clipPath>
</defs>
</svg>
