<svg width="171" height="346" viewBox="0 0 171 346" fill="none" xmlns="http://www.w3.org/2000/svg">
<path opacity="0.6" fill-rule="evenodd" clip-rule="evenodd" d="M301.756 110.899C301.752 110.9 301.748 110.9 301.744 110.901L301.738 110.902C301.697 110.909 301.618 110.921 301.503 110.941C301.272 110.979 300.895 111.044 300.378 111.137C299.346 111.322 297.762 111.62 295.696 112.047C291.562 112.902 285.52 114.271 278.127 116.286C263.292 120.331 243.278 126.912 222.432 137.029C180.244 157.504 137.906 190.778 124.014 243.732C110.219 296.31 130.458 345.463 156.756 383.441C169.756 402.215 183.76 417.529 194.544 428.157C199.918 433.454 204.446 437.541 207.581 440.265C209.147 441.626 210.363 442.644 211.158 443.299C211.556 443.627 211.848 443.863 212.026 444.007C212.116 444.078 212.176 444.127 212.207 444.151L212.211 444.154C212.214 444.156 212.217 444.159 212.22 444.161C212.222 444.163 212.225 444.165 212.227 444.167C212.227 444.167 212.228 444.168 212.229 444.168C212.229 444.168 212.228 444.168 212.229 444.168C220.9 450.992 222.408 463.553 215.593 472.235C208.772 480.924 196.2 482.438 187.511 475.617L199.861 459.886C187.511 475.617 187.505 475.613 187.499 475.608L187.444 475.564L187.331 475.475C187.24 475.402 187.119 475.306 186.968 475.185C186.668 474.944 186.251 474.605 185.725 474.173C184.675 473.307 183.191 472.063 181.346 470.46C177.657 467.254 172.506 462.599 166.466 456.647C154.422 444.776 138.652 427.56 123.87 406.212C94.6032 363.946 67.2458 302.484 85.3229 233.581C103.516 164.237 158.177 123.753 204.967 101.044C228.61 89.5686 251.079 82.2009 267.605 77.695C275.893 75.4354 282.75 73.8781 287.596 72.876C290.021 72.3746 291.947 72.0112 293.302 71.7677C293.979 71.6459 294.515 71.554 294.899 71.4897C295.091 71.4576 295.245 71.4323 295.36 71.4137L295.504 71.3907L295.553 71.3828L295.573 71.3798C295.581 71.3786 295.588 71.3774 298.666 91.1391L295.588 71.3774C306.502 69.6774 316.728 77.1469 318.428 88.0609C320.127 98.9672 312.669 109.186 301.768 110.897C301.767 110.897 301.766 110.897 301.764 110.898C301.762 110.898 301.759 110.899 301.756 110.899Z" fill="url(#paint0_linear_189_739)"/>
<path opacity="0.6" fill-rule="evenodd" clip-rule="evenodd" d="M226.292 11.917C230.756 22.0137 226.195 33.8168 216.105 38.2893L216.088 38.2967M208 501.005C200.143 519.397 200.136 519.394 200.128 519.391L200.057 519.36L199.903 519.294C199.778 519.24 199.609 519.165 199.396 519.072C198.97 518.884 198.371 518.617 197.61 518.27C196.089 517.578 193.919 516.567 191.193 515.238C185.744 512.582 178.055 508.647 168.868 503.431C150.539 493.026 126.017 477.395 101.376 456.498C52.4908 415.041 0.460674 350.466 0.0030366 262.907C-0.457556 174.783 51.5601 109.007 100.597 66.5456C125.324 45.1347 149.985 29.022 168.433 18.2636C177.678 12.8716 185.42 8.79121 190.907 6.03379C193.651 4.65433 195.836 3.60375 197.367 2.88361C198.133 2.52348 198.735 2.24578 199.163 2.05073C199.377 1.95319 199.548 1.87629 199.673 1.82006L199.827 1.75121L199.878 1.72841L199.897 1.71992C199.905 1.71654 199.912 1.71347 207.595 19.0885L199.912 1.71336C210.014 -2.75351 221.825 1.81482 226.292 11.917M208 501.005L200.143 519.397C210.3 523.736 222.053 519.02 226.392 508.862C230.729 498.711 226.021 486.967 215.877 482.621C215.878 482.622 215.877 482.621 215.877 482.621C215.876 482.621 215.875 482.621 215.874 482.62C215.873 482.62 215.871 482.619 215.87 482.618C215.869 482.618 215.869 482.618 215.868 482.618C215.864 482.616 215.861 482.615 215.857 482.613L215.825 482.599C215.77 482.575 215.672 482.532 215.53 482.47C215.248 482.345 214.796 482.144 214.186 481.866C212.965 481.311 211.113 480.449 208.719 479.282C203.929 476.947 196.989 473.4 188.616 468.646C171.824 459.114 149.502 444.864 127.247 425.991C82.3404 387.908 40.3719 333.381 40.0025 262.698C39.6305 191.519 81.6114 135.897 126.781 96.7848C149.158 77.4091 171.652 62.6918 188.584 52.8167C197.028 47.892 204.032 44.2048 208.869 41.7738C211.286 40.5591 213.157 39.6603 214.392 39.0796C215.009 38.7893 215.467 38.5787 215.753 38.4481C215.897 38.3827 215.997 38.3375 216.053 38.3122L216.088 38.2967" fill="url(#paint1_linear_189_739)"/>
<defs>
<linearGradient id="paint0_linear_189_739" x1="254.84" y1="85.9692" x2="-201.492" y2="245.147" gradientUnits="userSpaceOnUse">
<stop stop-color="#FF8800" stop-opacity="0"/>
<stop offset="0.811728" stop-color="#FFB969"/>
</linearGradient>
<linearGradient id="paint1_linear_189_739" x1="174" y1="-218.495" x2="-274.308" y2="279.734" gradientUnits="userSpaceOnUse">
<stop stop-color="#FF8800" stop-opacity="0"/>
<stop offset="0.811728" stop-color="#FFB969"/>
</linearGradient>
</defs>
</svg>
