<svg width="82" height="85" viewBox="0 0 82 85" fill="none" xmlns="http://www.w3.org/2000/svg">
<path d="M71.153 82.9715C70.0283 84.0577 68.2157 83.9849 67.1818 82.8119L64.3718 79.6241C64.1505 79.3731 63.8847 79.1647 63.5876 79.0091L59.8137 77.0332C58.4251 76.3062 57.9338 74.5721 58.7372 73.234L60.9207 69.597C61.0927 69.3107 61.2101 68.9954 61.2671 68.6668L61.9914 64.4935C62.258 62.9581 63.7669 61.9592 65.2973 62.305L69.4569 63.2451C69.7844 63.3191 70.1227 63.3327 70.4551 63.2852L74.6767 62.6819C76.23 62.4599 77.6539 63.5767 77.7963 65.1286L78.1835 69.3465C78.214 69.6786 78.3057 70.0023 78.4541 70.3015L80.3388 74.1019C81.0323 75.5002 80.4034 77.1893 78.961 77.8025L75.0407 79.4693C74.7321 79.6005 74.4504 79.787 74.2097 80.0194L71.153 82.9715Z" fill="#F69525"/>
<path d="M18.4872 1.7109C20.6684 -0.570298 24.3316 -0.570302 26.5128 1.7109L32.441 7.91092C32.9078 8.39906 33.461 8.79788 34.0732 9.08748L41.8479 12.7658C44.7085 14.1191 45.8405 17.5759 44.328 20.3391L40.2171 27.8492C39.8934 28.4405 39.6821 29.0858 39.5937 29.7529L38.4705 38.2263C38.0572 41.3439 35.0937 43.4803 31.9777 42.9068L23.5087 41.3483C22.8419 41.2256 22.1581 41.2256 21.4913 41.3483L13.0223 42.9068C9.90633 43.4803 6.94279 41.3439 6.52953 38.2263L5.40635 29.7529C5.31792 29.0858 5.1066 28.4405 4.78294 27.8492L0.672024 20.3391C-0.840523 17.5759 0.291444 14.1192 3.15205 12.7658L10.9268 9.08748C11.539 8.79788 12.0922 8.39906 12.559 7.91092L18.4872 1.7109Z" fill="#EC8B1D"/>
</svg>
