<svg width="24" height="25" viewBox="0 0 24 25" fill="none" xmlns="http://www.w3.org/2000/svg">
<path d="M0 12.5002C0 19.1277 5.37258 24.5002 12 24.5002C18.6274 24.5002 24 19.1277 24 12.5002C24 5.87283 18.6274 0.500244 12 0.500244C5.37258 0.500244 0 5.87283 0 12.5002Z" fill="#F00073"/>
<path d="M11.9999 7.40015C13.6499 7.40015 13.8749 7.40015 14.5499 7.40015C15.1499 7.40015 15.4499 7.55015 15.6749 7.62515C15.9749 7.77515 16.1999 7.85015 16.4249 8.07515C16.6499 8.30015 16.7999 8.52515 16.8749 8.82515C16.9499 9.05015 17.0249 9.35015 17.0999 9.95015C17.0999 10.6251 17.0999 10.7751 17.0999 12.5001C17.0999 14.2251 17.0999 14.3751 17.0999 15.0501C17.0999 15.6501 16.9499 15.9501 16.8749 16.1751C16.7249 16.4751 16.6499 16.7001 16.4249 16.9251C16.1999 17.1501 15.9749 17.3001 15.6749 17.3751C15.4499 17.4501 15.1499 17.5251 14.5499 17.6001C13.8749 17.6001 13.7249 17.6001 11.9999 17.6001C10.2749 17.6001 10.1249 17.6001 9.4499 17.6001C8.8499 17.6001 8.5499 17.4501 8.3249 17.3751C8.0249 17.2251 7.7999 17.1501 7.5749 16.9251C7.3499 16.7001 7.1999 16.4751 7.1249 16.1751C7.0499 15.9501 6.9749 15.6501 6.8999 15.0501C6.8999 14.3751 6.8999 14.2251 6.8999 12.5001C6.8999 10.7751 6.8999 10.6251 6.8999 9.95015C6.8999 9.35015 7.0499 9.05015 7.1249 8.82515C7.2749 8.52515 7.3499 8.30015 7.5749 8.07515C7.7999 7.85015 8.0249 7.70015 8.3249 7.62515C8.5499 7.55015 8.8499 7.47515 9.4499 7.40015C10.1249 7.40015 10.3499 7.40015 11.9999 7.40015ZM11.9999 6.27515C10.2749 6.27515 10.1249 6.27515 9.4499 6.27515C8.7749 6.27515 8.3249 6.42515 7.9499 6.57515C7.5749 6.72515 7.1999 6.95015 6.8249 7.32515C6.4499 7.70015 6.2999 8.00015 6.0749 8.45015C5.9249 8.82515 5.8499 9.27515 5.7749 9.95015C5.7749 10.6251 5.7749 10.8501 5.7749 12.5001C5.7749 14.2251 5.7749 14.3751 5.7749 15.0501C5.7749 15.7251 5.9249 16.1751 6.0749 16.5501C6.2249 16.9251 6.4499 17.3001 6.8249 17.6751C7.1999 18.0501 7.4999 18.2001 7.9499 18.4251C8.3249 18.5751 8.7749 18.6501 9.4499 18.7251C10.1249 18.7251 10.3499 18.7251 11.9999 18.7251C13.6499 18.7251 13.8749 18.7251 14.5499 18.7251C15.2249 18.7251 15.6749 18.5751 16.0499 18.4251C16.4249 18.2751 16.7999 18.0501 17.1749 17.6751C17.5499 17.3001 17.6999 17.0001 17.9249 16.5501C18.0749 16.1751 18.1499 15.7251 18.2249 15.0501C18.2249 14.3751 18.2249 14.1501 18.2249 12.5001C18.2249 10.8501 18.2249 10.6251 18.2249 9.95015C18.2249 9.27515 18.0749 8.82515 17.9249 8.45015C17.7749 8.07515 17.5499 7.70015 17.1749 7.32515C16.7999 6.95015 16.4999 6.80015 16.0499 6.57515C15.6749 6.42515 15.2249 6.35015 14.5499 6.27515C13.8749 6.27515 13.7249 6.27515 11.9999 6.27515Z" fill="white"/>
<path d="M11.9999 9.27515C10.1999 9.27515 8.7749 10.7001 8.7749 12.5001C8.7749 14.3001 10.1999 15.7251 11.9999 15.7251C13.7999 15.7251 15.2249 14.3001 15.2249 12.5001C15.2249 10.7001 13.7999 9.27515 11.9999 9.27515ZM11.9999 14.6001C10.8749 14.6001 9.8999 13.7001 9.8999 12.5001C9.8999 11.3751 10.7999 10.4001 11.9999 10.4001C13.1249 10.4001 14.0999 11.3001 14.0999 12.5001C14.0999 13.6251 13.1249 14.6001 11.9999 14.6001Z" fill="white"/>
<path d="M15.2999 9.95015C15.7141 9.95015 16.0499 9.61436 16.0499 9.20015C16.0499 8.78593 15.7141 8.45015 15.2999 8.45015C14.8857 8.45015 14.5499 8.78593 14.5499 9.20015C14.5499 9.61436 14.8857 9.95015 15.2999 9.95015Z" fill="white"/>
</svg>
