<svg width="23" height="22" viewBox="0 0 23 22" fill="none" xmlns="http://www.w3.org/2000/svg">
<path d="M13.1529 20.9715C12.0282 22.0577 10.2156 21.9849 9.18169 20.8119L6.37164 17.6241C6.1504 17.3731 5.88458 17.1647 5.58745 17.0091L1.81354 15.0332C0.424993 14.3062 -0.0663544 12.5721 0.737054 11.234L2.92062 7.59703C3.09253 7.31069 3.20994 6.99537 3.26697 6.6668L3.99131 2.49354C4.25783 0.958058 5.76674 -0.0408497 7.29718 0.305038L11.4568 1.24511C11.7842 1.31913 12.1226 1.33272 12.455 1.28522L16.6766 0.681902C18.2298 0.459919 19.6537 1.57667 19.7962 3.12858L20.1834 7.3465C20.2139 7.67859 20.3056 8.00231 20.454 8.30153L22.3387 12.1019C23.0322 13.5002 22.4033 15.1893 20.9609 15.8025L17.0406 17.4693C16.732 17.6005 16.4503 17.787 16.2096 18.0194L13.1529 20.9715Z" fill="#F69525"/>
</svg>
