<svg width="45" height="43" viewBox="0 0 45 43" fill="none" xmlns="http://www.w3.org/2000/svg">
<path d="M18.4872 1.7109C20.6684 -0.570298 24.3316 -0.570302 26.5128 1.7109L32.441 7.91092C32.9078 8.39906 33.461 8.79788 34.0732 9.08748L41.8479 12.7658C44.7085 14.1191 45.8405 17.5759 44.328 20.3391L40.2171 27.8492C39.8934 28.4405 39.6821 29.0858 39.5937 29.7529L38.4705 38.2263C38.0572 41.3439 35.0937 43.4803 31.9777 42.9068L23.5087 41.3483C22.8419 41.2256 22.1581 41.2256 21.4913 41.3483L13.0223 42.9068C9.90633 43.4803 6.94279 41.3439 6.52953 38.2263L5.40635 29.7529C5.31792 29.0858 5.1066 28.4405 4.78294 27.8492L0.672024 20.3391C-0.840523 17.5759 0.291444 14.1192 3.15205 12.7658L10.9268 9.08748C11.539 8.79788 12.0922 8.39906 12.559 7.91092L18.4872 1.7109Z" fill="#EC8B1D"/>
</svg>
