<svg width="24" height="25" viewBox="0 0 24 25" fill="none" xmlns="http://www.w3.org/2000/svg">
<path d="M0 12.5002C0 19.1277 5.37258 24.5002 12 24.5002C18.6274 24.5002 24 19.1277 24 12.5002C24 5.87283 18.6274 0.500244 12 0.500244C5.37258 0.500244 0 5.87283 0 12.5002Z" fill="#25D366"/>
<path fill-rule="evenodd" clip-rule="evenodd" d="M16.2 8.22524C15.075 7.10024 13.575 6.50024 12 6.50024C8.7 6.50024 6 9.20024 6 12.5002C6 13.5502 6.3 14.6002 6.825 15.5002L6 18.5002L9.15001 17.6752C10.05 18.1252 11.025 18.4252 12 18.4252C15.3 18.4252 18 15.7252 18 12.4252C18 10.8502 17.325 9.35024 16.2 8.22524ZM12 17.4502C11.1 17.4502 10.2 17.2252 9.45 16.7752L9.3 16.7002L7.425 17.2252L7.95 15.4252L7.8 15.2002C7.275 14.3752 7.05 13.4752 7.05 12.5752C7.05 9.87524 9.3 7.62524 12 7.62524C13.35 7.62524 14.55 8.15024 15.525 9.05024C16.5 10.0252 16.95 11.2252 16.95 12.5752C16.95 15.2002 14.775 17.4502 12 17.4502ZM14.7 13.7002C14.55 13.6252 13.8 13.2502 13.65 13.2502C13.5 13.1752 13.425 13.1752 13.35 13.3252C13.275 13.4752 12.975 13.7752 12.9 13.9252C12.825 14.0002 12.75 14.0002 12.6 14.0002C12.45 13.9252 12 13.7752 11.4 13.2502C10.95 12.8752 10.65 12.3502 10.575 12.2002C10.5 12.0502 10.575 11.9752 10.65 11.9002C10.725 11.8252 10.8 11.7502 10.875 11.6752C10.95 11.6002 10.95 11.5252 11.025 11.4502C11.1 11.3752 11.025 11.3002 11.025 11.2252C11.025 11.1502 10.725 10.4002 10.575 10.1002C10.5 9.87524 10.35 9.87524 10.275 9.87524C10.2 9.87524 10.125 9.87524 9.97499 9.87524C9.89999 9.87524 9.74999 9.87524 9.59999 10.0252C9.44999 10.1752 9.075 10.5502 9.075 11.3002C9.075 12.0502 9.6 12.7252 9.675 12.8752C9.75 12.9502 10.725 14.5252 12.225 15.1252C13.5 15.6502 13.725 15.5002 14.025 15.5002C14.325 15.5002 14.925 15.1252 15 14.8252C15.15 14.4502 15.15 14.1502 15.075 14.1502C15 13.7752 14.85 13.7752 14.7 13.7002Z" fill="white"/>
</svg>
